<svg width="11" height="6" viewBox="0 0 11 6" fill="none" xmlns="http://www.w3.org/2000/svg">
<path d="M10.7823 1.18894L5.90633 5.84791C5.8535 5.9 5.78901 5.94008 5.71768 5.96514C5.6478 5.98873 5.57413 6.00052 5.5 5.99998C5.42587 6.0005 5.35221 5.98871 5.28232 5.96514C5.21099 5.94006 5.14651 5.89999 5.09367 5.84791L0.203166 1.18894C0.0679155 1.06009 0 0.898617 0 0.70507C0 0.511522 0.0725593 0.345624 0.217678 0.207376C0.362797 0.0691271 0.532295 2.86102e-06 0.725593 2.86102e-06C0.820626 -0.000266552 0.914711 0.017992 1.00206 0.0536551C1.08941 0.0893183 1.16817 0.141631 1.23351 0.207376L5.5 4.27188L9.76649 0.207376C9.90174 0.0785279 10.0683 0.0138278 10.2669 0.0138278C10.4654 0.0138278 10.6372 0.082952 10.7823 0.2212C10.8513 0.283442 10.9062 0.358478 10.9437 0.441692C10.9811 0.524906 11.0003 0.614536 11 0.70507C11.0003 0.795603 10.9811 0.885234 10.9437 0.968447C10.9062 1.05166 10.8513 1.1267 10.7823 1.18894Z" fill="white"/>
</svg>
