<svg width="19" height="19" viewBox="0 0 19 19" fill="none" xmlns="http://www.w3.org/2000/svg">
<path d="M13.4346 11.4317C14.5192 11.6138 15.7146 11.4238 16.5538 10.8617C17.67 10.1175 17.67 8.89834 16.5538 8.15418C15.7067 7.59209 14.4954 7.40209 13.4108 7.59209M5.54168 11.4317C4.4571 11.6138 3.26168 11.4238 2.42251 10.8617C1.30626 10.1175 1.30626 8.89834 2.42251 8.15418C3.2696 7.59209 4.48085 7.40209 5.56543 7.59209M14.25 5.66834C14.2002 5.66042 14.1494 5.66042 14.0996 5.66834C13.5713 5.64924 13.0711 5.42547 12.7047 5.04432C12.3383 4.66318 12.1345 4.15452 12.1363 3.62584C12.1363 2.49376 13.0467 1.58334 14.1788 1.58334C14.7205 1.58334 15.24 1.79853 15.623 2.18158C16.0061 2.56462 16.2213 3.08414 16.2213 3.62584C16.2198 4.15489 16.0138 4.66289 15.6464 5.04357C15.279 5.42425 14.7787 5.64812 14.25 5.66834ZM4.72626 5.66834C4.77376 5.66043 4.82918 5.66043 4.87668 5.66834C5.40501 5.64924 5.90522 5.42547 6.27159 5.04432C6.63797 4.66318 6.8418 4.15452 6.84002 3.62584C6.84002 2.49376 5.9296 1.58334 4.79751 1.58334C4.25581 1.58334 3.73629 1.79853 3.35325 2.18158C2.97021 2.56462 2.75501 3.08414 2.75501 3.62584C2.76293 4.73418 3.63376 5.62876 4.72626 5.66834ZM9.50002 11.5821C9.45019 11.5742 9.39942 11.5742 9.3496 11.5821C8.82127 11.563 8.32106 11.3392 7.95469 10.9581C7.58831 10.5769 7.38448 10.0683 7.38626 9.53959C7.38626 8.40751 8.29668 7.49709 9.42877 7.49709C9.97047 7.49709 10.49 7.71228 10.873 8.09533C11.2561 8.47837 11.4713 8.99789 11.4713 9.53959C11.4633 10.6479 10.5925 11.5504 9.50002 11.5821ZM7.19626 14.0758C6.08001 14.82 6.08001 16.0392 7.19626 16.7833C8.46293 17.6304 10.5371 17.6304 11.8038 16.7833C12.92 16.0392 12.92 14.82 11.8038 14.0758C10.545 13.2367 8.46293 13.2367 7.19626 14.0758Z" stroke="white" stroke-width="0.75" stroke-linecap="round" stroke-linejoin="round"/>
</svg>
