<svg width="19" height="19" viewBox="0 0 19 19" fill="none" xmlns="http://www.w3.org/2000/svg">
<path fill-rule="evenodd" clip-rule="evenodd" d="M8.31804 1.19384C8.38865 1.11259 8.48002 1.05207 8.58237 1.01874C8.68473 0.985411 8.79421 0.980535 8.89913 1.00463C11.7555 1.66092 13.2003 4.79117 12.8598 7.59209C12.7284 8.68142 12.4023 9.53484 11.9217 10.2141L11.913 10.2268C12.0223 10.1729 12.1228 10.1151 12.217 10.0542C12.6857 9.74938 13.0293 9.34801 13.4773 8.82551L13.6444 8.63076C13.7081 8.55674 13.789 8.49957 13.8801 8.46431C13.9711 8.42905 14.0694 8.41679 14.1664 8.42861C14.2633 8.44043 14.3558 8.47597 14.4357 8.53208C14.5156 8.58819 14.5804 8.66315 14.6245 8.7503C15.1238 9.73893 15.3264 10.8509 15.2079 11.9521C15.0893 13.0533 14.6547 14.0967 13.9564 14.9564C13.2581 15.8162 12.326 16.4555 11.2725 16.7973C10.219 17.1391 9.08909 17.1688 8.01909 16.8828C6.94908 16.5967 5.98469 16.0073 5.24222 15.1854C4.49976 14.3635 4.01095 13.3444 3.83475 12.2509C3.65855 11.1575 3.80249 10.0364 4.2492 9.0229C4.69592 8.00941 5.42633 7.14682 6.35233 6.53917L6.40537 6.48534C6.43294 6.45763 6.46317 6.4327 6.49563 6.41092C7.18042 5.94938 7.67283 5.57176 8.00454 5.12842C8.31725 4.70963 8.50962 4.19822 8.50962 3.42317C8.50962 2.84842 8.40354 2.30059 8.21038 1.7963C8.17198 1.69574 8.16164 1.58664 8.18047 1.48066C8.19929 1.37468 8.24657 1.27581 8.31725 1.19463L8.31804 1.19384ZM9.63537 2.57372C9.67654 2.8508 9.69792 3.13422 9.69792 3.42238C9.69792 4.42622 9.43825 5.19334 8.95612 5.83855C8.50408 6.44497 7.87708 6.90967 7.20812 7.36251L7.15033 7.4203C7.11964 7.45111 7.08566 7.47845 7.049 7.50184C6.34016 7.95493 5.77075 8.59558 5.40396 9.35268C5.03718 10.1098 4.88737 10.9537 4.97118 11.7908C5.05499 12.6279 5.36913 13.4254 5.87872 14.0947C6.38832 14.7641 7.07344 15.2792 7.85803 15.5827C8.64263 15.8863 9.49599 15.9665 10.3234 15.8144C11.1508 15.6624 11.9199 15.284 12.5453 14.7213C13.1707 14.1586 13.6279 13.4336 13.8662 12.6268C14.1046 11.82 14.1146 10.9629 13.8953 10.1508C13.5945 10.4761 13.262 10.7912 12.8638 11.0501C12.1323 11.5243 11.2171 11.795 9.89583 11.795C9.76408 11.7951 9.63605 11.7513 9.53191 11.6706C9.42777 11.5899 9.35343 11.4768 9.3206 11.3492C9.28777 11.2216 9.29831 11.0868 9.35057 10.9658C9.40283 10.8449 9.49383 10.7447 9.60925 10.6812C10.1468 10.3851 10.602 10.0233 10.9527 9.52851C11.301 9.03451 11.5694 8.37505 11.681 7.44959C11.9241 5.44588 11.0952 3.46909 9.63537 2.57372Z" fill="white"/>
</svg>
