<svg width="19" height="19" viewBox="0 0 19 19" fill="none" xmlns="http://www.w3.org/2000/svg">
<path d="M9.61874 13.0625V14.725" stroke="white" stroke-width="0.75" stroke-linecap="round" stroke-linejoin="round"/>
<path d="M5.66042 17.4167H13.5771V16.625C13.5771 15.7542 12.8646 15.0417 11.9937 15.0417H7.24375C6.37292 15.0417 5.66042 15.7542 5.66042 16.625V17.4167Z" stroke="white" stroke-width="0.75" stroke-miterlimit="10"/>
<path d="M4.86874 17.4167H14.3687M9.49999 12.6667C6.43624 12.6667 3.95833 10.1888 3.95833 7.12501V4.75001C3.95833 3.00043 5.37541 1.58334 7.12499 1.58334H11.875C13.6246 1.58334 15.0417 3.00043 15.0417 4.75001V7.12501C15.0417 10.1888 12.5637 12.6667 9.49999 12.6667Z" stroke="white" stroke-width="0.75" stroke-linecap="round" stroke-linejoin="round"/>
<path d="M4.33042 9.22292C3.73667 9.03292 3.21417 8.68459 2.80251 8.27292C2.09001 7.48126 1.61501 6.53126 1.61501 5.42292C1.61501 4.31459 2.48584 3.44376 3.59417 3.44376H4.10876C3.95042 3.80792 3.87126 4.21167 3.87126 4.63126V7.00626C3.87126 7.79792 4.03751 8.54209 4.33042 9.22292ZM14.6696 9.22292C15.2633 9.03292 15.7858 8.68459 16.1975 8.27292C16.91 7.48126 17.385 6.53126 17.385 5.42292C17.385 4.31459 16.5142 3.44376 15.4058 3.44376H14.8913C15.0496 3.80792 15.1288 4.21167 15.1288 4.63126V7.00626C15.1288 7.79792 14.9625 8.54209 14.6696 9.22292Z" stroke="white" stroke-width="0.75" stroke-linecap="round" stroke-linejoin="round"/>
</svg>
