<svg width="19" height="19" viewBox="0 0 19 19" fill="none" xmlns="http://www.w3.org/2000/svg">
<path d="M4.74206 9.44697L5.64061 4.95822H10.1294L12.8218 9.44697M18.2083 6.75372H11.2068M14.6173 9.44697H3.84511C3.49142 9.44697 3.1412 9.51663 2.81444 9.65198C2.48768 9.78733 2.19078 9.98571 1.94069 10.2358C1.6906 10.4859 1.49222 10.7828 1.35687 11.1096C1.22152 11.4363 1.15186 11.7865 1.15186 12.1402C1.15186 12.4939 1.22152 12.8441 1.35687 13.1709C1.49222 13.4976 1.6906 13.7945 1.94069 14.0446C2.19078 14.2947 2.48768 14.4931 2.81444 14.6285C3.1412 14.7638 3.49142 14.8335 3.84511 14.8335H14.6173C15.3316 14.8335 16.0166 14.5497 16.5217 14.0446C17.0268 13.5396 17.3106 12.8545 17.3106 12.1402C17.3106 11.4259 17.0268 10.7409 16.5217 10.2358C16.0166 9.73072 15.3316 9.44697 14.6173 9.44697Z" stroke="white" stroke-width="0.75" stroke-linecap="round" stroke-linejoin="round"/>
</svg>
