<svg width="19" height="19" viewBox="0 0 19 19" fill="none" xmlns="http://www.w3.org/2000/svg">
<path d="M15.7225 6.40458C15.7225 6.73708 15.6988 7.06166 15.6592 7.37041C15.0515 7.10523 14.3721 7.05321 13.7311 7.22279C13.0902 7.39236 12.5253 7.77359 12.1283 8.30458C11.8534 7.93856 11.4972 7.64146 11.0878 7.43674C10.6783 7.23203 10.2269 7.1253 9.76917 7.125C8.14625 7.125 6.83209 8.44708 6.83209 10.0858C6.83209 12.2075 7.95625 13.8304 9.20709 14.9308C9.1675 14.9546 9.12792 14.9625 9.08834 14.9783C8.85084 15.0654 8.455 15.0654 8.2175 14.9783C6.16709 14.2737 1.58334 11.3604 1.58334 6.40458C1.58334 4.21958 3.34084 2.45416 5.51 2.45416C6.80042 2.45416 7.94042 3.07166 8.65292 4.02958C9.01821 3.54068 9.4925 3.14371 10.0381 2.87023C10.5837 2.59675 11.1855 2.45428 11.7958 2.45416C13.965 2.45416 15.7225 4.21958 15.7225 6.40458Z" stroke="white" stroke-width="0.75" stroke-linecap="round" stroke-linejoin="round"/>
<path d="M17.3071 10.0858C17.3071 13.7908 13.8792 15.9758 12.3433 16.4983C12.1612 16.5617 11.8683 16.5617 11.6862 16.4983C11.0292 16.2767 10.0237 15.7463 9.09749 14.9308C7.84666 13.8304 6.72249 12.2075 6.72249 10.0858C6.72249 8.4471 8.03666 7.12501 9.65957 7.12501C10.6254 7.12501 11.4804 7.5921 12.0187 8.3046C12.4158 7.77361 12.9806 7.39238 13.6215 7.2228C14.2625 7.05323 14.9419 7.10525 15.5496 7.37043C16.5867 7.8296 17.3071 8.86668 17.3071 10.0858Z" stroke="white" stroke-width="0.75" stroke-linecap="round" stroke-linejoin="round"/>
</svg>
