<svg width="19" height="19" viewBox="0 0 19 19" fill="none" xmlns="http://www.w3.org/2000/svg">
<path fill-rule="evenodd" clip-rule="evenodd" d="M8.68173 4.88172L9.69506 3.86839C10.5108 3.05139 11.9434 2.48519 13.3659 2.28126C13.9965 2.18301 14.6379 2.17448 15.2709 2.25592C15.8321 2.33952 16.1753 2.50419 16.3349 2.66506C16.4958 2.82466 16.6605 3.16792 16.7441 3.72906C16.8251 4.26992 16.8188 4.93239 16.7187 5.63412C16.5161 7.05659 15.9486 8.48919 15.1316 9.30492L9.5 14.9378L8.0484 13.4862C7.98959 13.4273 7.91977 13.3806 7.84291 13.3487C7.76605 13.3168 7.68366 13.3003 7.60044 13.3003C7.51723 13.3002 7.43481 13.3165 7.35791 13.3483C7.281 13.3801 7.21111 13.4268 7.15223 13.4856C7.03331 13.6043 6.96643 13.7654 6.96631 13.9335C6.96625 14.0167 6.98258 14.0991 7.01438 14.176C7.04617 14.253 7.09279 14.3228 7.1516 14.3817L9.0516 16.2817C9.11043 16.3407 9.18032 16.3875 9.25726 16.4194C9.3342 16.4514 9.41669 16.4678 9.5 16.4678C9.5833 16.4678 9.66579 16.4514 9.74273 16.4194C9.81968 16.3875 9.88956 16.3407 9.9484 16.2817L10.6413 15.5876L12.1233 18.0589C12.1727 18.1416 12.2403 18.212 12.3211 18.2646C12.4018 18.3173 12.4935 18.3508 12.5891 18.3626C12.6848 18.3745 12.7819 18.3644 12.873 18.333C12.9642 18.3017 13.0469 18.2499 13.1151 18.1817L15.6484 15.6484C15.718 15.5787 15.7703 15.4938 15.8013 15.4003C15.8323 15.3069 15.8411 15.2075 15.827 15.1101L15.238 10.9909L16.0284 10.2017C17.1114 9.11746 17.7485 7.38339 17.9727 5.81272C18.0867 5.01852 18.0994 4.22939 17.9968 3.54032C17.8955 2.87152 17.6725 2.21032 17.2317 1.76826C16.7897 1.32746 16.1285 1.10326 15.4584 1.00319C14.704 0.903875 13.9393 0.912405 13.1873 1.02852C11.6153 1.25019 9.88 1.88732 8.79826 2.97032L8.00913 3.76072L3.88993 3.17172C3.79249 3.1576 3.6931 3.16639 3.59965 3.19739C3.5062 3.22839 3.42127 3.28076 3.3516 3.35032L0.818262 5.88366C0.750076 5.95177 0.698336 6.03456 0.666983 6.1257C0.635631 6.21684 0.625493 6.31393 0.637343 6.40958C0.649192 6.50523 0.682716 6.59692 0.735361 6.67765C0.788005 6.75838 0.858382 6.82604 0.941129 6.87546L3.41113 8.35746L2.71826 9.05032C2.65928 9.10915 2.61249 9.17904 2.58056 9.25599C2.54863 9.33293 2.5322 9.41542 2.5322 9.49872C2.5322 9.58203 2.54863 9.66452 2.58056 9.74146C2.61249 9.8184 2.65928 9.88829 2.71826 9.94712L4.61826 11.8471C4.67715 11.906 4.74705 11.9527 4.82399 11.9846C4.90093 12.0165 4.98339 12.0329 5.06666 12.0329C5.14994 12.0329 5.2324 12.0165 5.30933 11.9846C5.38627 11.9527 5.45618 11.906 5.51506 11.8471C5.57395 11.7882 5.62066 11.7183 5.65253 11.6414C5.68439 11.5645 5.7008 11.482 5.7008 11.3987C5.7008 11.3154 5.68439 11.233 5.65253 11.1561C5.62066 11.0791 5.57395 11.0092 5.51506 10.9503L4.0622 9.49999L4.88173 8.68172L8.68173 4.88172ZM12.7921 16.7124L11.5634 14.6642L14.1183 12.1106L14.5287 14.9758L12.7933 16.7111L12.7921 16.7124ZM4.3358 7.43532L6.8894 4.88172L4.0242 4.47132L2.28886 6.20666L4.3358 7.43532ZM2.98046 13.1151C3.03935 13.0563 3.08607 12.9864 3.11797 12.9096C3.14987 12.8327 3.16632 12.7503 3.16638 12.6671C3.16644 12.5839 3.15011 12.5015 3.11832 12.4246C3.08652 12.3477 3.0399 12.2778 2.9811 12.2189C2.92229 12.16 2.85247 12.1133 2.77561 12.0814C2.69875 12.0495 2.61636 12.033 2.53314 12.033C2.44993 12.0329 2.36751 12.0492 2.29061 12.081C2.2137 12.1128 2.14381 12.1595 2.08493 12.2183L0.818262 13.4849C0.699507 13.6038 0.632858 13.7651 0.632977 13.9331C0.633096 14.1012 0.699973 14.2623 0.818896 14.3811C0.937819 14.4998 1.09905 14.5665 1.26711 14.5664C1.43517 14.5663 1.59631 14.4994 1.71506 14.3805L2.98173 13.1138L2.98046 13.1151ZM4.88046 15.0151C4.94095 14.9566 4.9892 14.8867 5.02239 14.8095C5.05559 14.7322 5.07306 14.6491 5.07379 14.565C5.07452 14.4809 5.05849 14.3975 5.02665 14.3197C4.9948 14.2419 4.94778 14.1711 4.88831 14.1117C4.82885 14.0522 4.75813 14.0052 4.6803 13.9733C4.60247 13.9415 4.51907 13.9255 4.43497 13.9262C4.35088 13.9269 4.26778 13.9444 4.19051 13.9776C4.11324 14.0108 4.04335 14.059 3.98493 14.1195L1.4516 16.6529C1.33284 16.7718 1.26619 16.933 1.26631 17.1011C1.26643 17.2691 1.33331 17.4303 1.45223 17.549C1.57115 17.6678 1.73238 17.7344 1.90044 17.7343C2.06851 17.7342 2.22964 17.6673 2.3484 17.5484L4.88173 15.0151H4.88046ZM6.78046 16.9151C6.83935 16.8563 6.88607 16.7864 6.91797 16.7096C6.94987 16.6327 6.96632 16.5503 6.96638 16.4671C6.96644 16.3839 6.95011 16.3015 6.91832 16.2246C6.88652 16.1477 6.8399 16.0778 6.7811 16.0189C6.72229 15.96 6.65247 15.9133 6.57561 15.8814C6.49875 15.8495 6.41636 15.833 6.33314 15.833C6.24993 15.8329 6.16751 15.8492 6.09061 15.881C6.0137 15.9128 5.94381 15.9595 5.88493 16.0183L4.61826 17.2849C4.49951 17.4038 4.43286 17.5651 4.43298 17.7331C4.4331 17.9012 4.49997 18.0623 4.6189 18.1811C4.73782 18.2998 4.89905 18.3665 5.06711 18.3664C5.23517 18.3663 5.39631 18.2994 5.51506 18.1805L6.78173 16.9138L6.78046 16.9151ZM12.0333 8.54746C12.4529 8.54746 12.8553 8.38078 13.152 8.08408C13.4487 7.78739 13.6154 7.38498 13.6154 6.96539C13.6154 6.5458 13.4487 6.1434 13.152 5.8467C12.8553 5.55001 12.4529 5.38332 12.0333 5.38332C11.6137 5.38332 11.2113 5.55001 10.9146 5.8467C10.6179 6.1434 10.4513 6.5458 10.4513 6.96539C10.4513 7.38498 10.6179 7.78739 10.9146 8.08408C11.2113 8.38078 11.6137 8.54746 12.0333 8.54746Z" fill="white"/>
</svg>
