<svg width="19" height="19" viewBox="0 0 19 19" fill="none" xmlns="http://www.w3.org/2000/svg">
<path d="M6.77666 3.16667V13.4583M12.4529 5.24083V15.8333M1.81291 6.15917V13.8621C1.81291 15.3663 2.88166 15.9838 4.18 15.2396L6.04041 14.1788C6.44416 13.9492 7.11708 13.9254 7.53666 14.1392L11.6929 16.2213C12.1125 16.4271 12.7854 16.4113 13.1892 16.1817L16.6171 14.2183C17.0525 13.965 17.4167 13.3475 17.4167 12.8408V5.13792C17.4167 3.63375 16.3479 3.01625 15.0496 3.76042L13.1892 4.82125C12.7854 5.05083 12.1125 5.07458 11.6929 4.86083L7.53666 2.78667C7.11708 2.58083 6.44416 2.59667 6.04041 2.82625L2.6125 4.78958C2.16916 5.04292 1.81291 5.66042 1.81291 6.15917Z" stroke="white" stroke-width="0.75" stroke-linecap="round" stroke-linejoin="round"/>
</svg>
