<svg width="19" height="19" viewBox="0 0 19 19" fill="none" xmlns="http://www.w3.org/2000/svg">
<path d="M7.12498 17.4167H11.875C15.8333 17.4167 17.4166 15.8333 17.4166 11.875V7.12501C17.4166 3.16668 15.8333 1.58334 11.875 1.58334H7.12498C3.16665 1.58334 1.58331 3.16668 1.58331 7.12501V11.875C1.58331 15.8333 3.16665 17.4167 7.12498 17.4167Z" stroke="white" stroke-width="0.75" stroke-linecap="round" stroke-linejoin="round"/>
<path d="M12.2709 7.71875C12.5858 7.71875 12.8878 7.59364 13.1105 7.37094C13.3332 7.14824 13.4584 6.84619 13.4584 6.53125C13.4584 6.21631 13.3332 5.91426 13.1105 5.69156C12.8878 5.46886 12.5858 5.34375 12.2709 5.34375C11.9559 5.34375 11.6539 5.46886 11.4312 5.69156C11.2085 5.91426 11.0834 6.21631 11.0834 6.53125C11.0834 6.84619 11.2085 7.14824 11.4312 7.37094C11.6539 7.59364 11.9559 7.71875 12.2709 7.71875ZM6.72919 7.71875C7.04413 7.71875 7.34618 7.59364 7.56888 7.37094C7.79158 7.14824 7.91669 6.84619 7.91669 6.53125C7.91669 6.21631 7.79158 5.91426 7.56888 5.69156C7.34618 5.46886 7.04413 5.34375 6.72919 5.34375C6.41424 5.34375 6.1122 5.46886 5.8895 5.69156C5.6668 5.91426 5.54169 6.21631 5.54169 6.53125C5.54169 6.84619 5.6668 7.14824 5.8895 7.37094C6.1122 7.59364 6.41424 7.71875 6.72919 7.71875ZM6.65002 10.5292H12.35C12.7459 10.5292 13.0625 10.8458 13.0625 11.2417C13.0625 13.2129 11.4713 14.8042 9.50002 14.8042C7.52877 14.8042 5.93752 13.2129 5.93752 11.2417C5.93752 10.8458 6.25419 10.5292 6.65002 10.5292Z" stroke="white" stroke-width="0.75" stroke-miterlimit="10" stroke-linecap="round" stroke-linejoin="round"/>
</svg>
