<svg width="136" height="25" viewBox="0 0 136 25" fill="none" xmlns="http://www.w3.org/2000/svg">
<path d="M4.69 24.2258H0.25V1.15583H4.69V24.2258ZM21.9655 1.15583H25.9855V24.2258H21.5455L16.5955 14.6858C15.3655 12.3158 14.0155 9.46583 13.0555 6.94583H12.9355C13.1155 9.79583 13.2055 13.0358 13.2055 17.1458V24.2258H9.18555V1.15583H13.9855L18.8455 10.5158C20.0755 12.8258 21.3655 15.6458 22.2955 18.0458H22.3555C22.0855 15.1058 21.9655 11.8358 21.9655 8.08583V1.15583ZM34.9537 14.5958V24.2258H30.5137V1.15583H42.8737V4.87583H34.9537V10.9658H42.3337V14.5958H34.9537ZM55.327 0.79583C61.717 0.79583 64.837 6.25583 64.837 12.4058C64.837 20.4458 60.757 24.5558 55.027 24.5558C48.937 24.5558 45.487 19.4558 45.487 12.7658C45.487 5.86583 49.297 0.79583 55.327 0.79583ZM55.207 4.42583C51.727 4.42583 50.137 8.44583 50.137 12.6758C50.137 17.2058 51.907 20.9258 55.177 20.9258C58.477 20.9258 60.187 17.2358 60.187 12.5858C60.187 8.35583 58.597 4.42583 55.207 4.42583Z" fill="#406AFF"/>
<path d="M84.4188 1.15583L77.4588 11.0258L84.7488 24.2258H79.6788L74.3388 14.0258L72.6288 16.3358V24.2258H68.2188V1.15583H72.6288V11.5958H72.7188C73.1988 10.6958 73.7088 9.82583 74.1888 8.95583L79.1388 1.15583H84.4188ZM91.3502 24.2258H86.9102V1.15583H91.3502V24.2258ZM108.626 1.15583H112.646V24.2258H108.206L103.256 14.6858C102.026 12.3158 100.676 9.46583 99.7157 6.94583H99.5957C99.7757 9.79583 99.8657 13.0358 99.8657 17.1458V24.2258H95.8457V1.15583H100.646L105.506 10.5158C106.736 12.8258 108.026 15.6458 108.956 18.0458H109.016C108.746 15.1058 108.626 11.8358 108.626 8.08583V1.15583ZM125.874 0.79583C132.264 0.79583 135.384 6.25583 135.384 12.4058C135.384 20.4458 131.304 24.5558 125.574 24.5558C119.484 24.5558 116.034 19.4558 116.034 12.7658C116.034 5.86583 119.844 0.79583 125.874 0.79583ZM125.754 4.42583C122.274 4.42583 120.684 8.44583 120.684 12.6758C120.684 17.2058 122.454 20.9258 125.724 20.9258C129.024 20.9258 130.734 17.2358 130.734 12.5858C130.734 8.35583 129.144 4.42583 125.754 4.42583Z" fill="white"/>
</svg>
