<svg width="30" height="30" viewBox="0 0 30 30" fill="none" xmlns="http://www.w3.org/2000/svg">
<path d="M18.9063 26.375L8.37504 15.875C8.25728 15.7612 8.1667 15.6224 8.11004 15.4688C8.05673 15.3183 8.03008 15.1596 8.03129 15C8.03013 14.8404 8.05678 14.6817 8.11004 14.5313C8.16674 14.3776 8.25731 14.2388 8.37504 14.125L18.9063 3.59375C19.1975 3.3025 19.5625 3.15625 20 3.15625C20.4375 3.15625 20.8125 3.3125 21.125 3.625C21.4375 3.9375 21.5938 4.3025 21.5938 4.71875C21.5944 4.92339 21.5531 5.126 21.4725 5.3141C21.3919 5.50219 21.2736 5.67181 21.125 5.8125L11.9375 15L21.125 24.1875C21.4163 24.4788 21.5625 24.8375 21.5625 25.265C21.5625 25.6925 21.4063 26.0625 21.0938 26.375C20.9531 26.5236 20.7835 26.6419 20.5954 26.7225C20.4073 26.8031 20.2047 26.8444 20 26.8438C19.7954 26.8444 19.5928 26.8031 19.4047 26.7225C19.2166 26.6419 19.047 26.5236 18.9063 26.375Z" fill="white"/>
</svg>
