<svg width="19" height="19" viewBox="0 0 19 19" fill="none" xmlns="http://www.w3.org/2000/svg">
<path d="M1.49624 1.06876C1.50857 0.968871 1.54841 0.874372 1.61131 0.795809C1.67422 0.717246 1.75772 0.657709 1.85249 0.623842C1.94797 0.590618 2.05096 0.585413 2.1493 0.60884C2.24763 0.632267 2.33721 0.683348 2.40745 0.75605L12.0294 10.636L17.4586 16.2102C17.5585 16.3129 17.6144 16.4505 17.6144 16.5937C17.6144 16.737 17.5585 16.8746 17.4586 16.9773L16.8823 17.5695C16.6272 17.8347 16.3212 18.0458 15.9826 18.1899C15.644 18.3341 15.2798 18.4084 14.9118 18.4084C14.5438 18.4084 14.1796 18.3341 13.841 18.1899C13.5024 18.0458 13.1964 17.8347 12.9414 17.5695L9.48179 14.0173L8.23095 15.3021C8.17824 15.3563 8.11458 15.3985 8.04424 15.4261C7.9739 15.4536 7.89848 15.4659 7.82303 15.462C7.74758 15.4581 7.67383 15.4381 7.6067 15.4035C7.53957 15.3688 7.48061 15.3202 7.43374 15.261L4.36999 11.4111C3.22529 9.97238 2.38324 8.3171 1.89445 6.54472C1.39784 4.76422 1.26245 2.90237 1.49624 1.06876ZM13.7037 16.8015L13.5692 16.9338L13.7037 16.8023C13.8601 16.9653 14.0478 17.095 14.2555 17.1836C14.4633 17.2722 14.6868 17.3179 14.9126 17.3179C15.1385 17.3179 15.362 17.2722 15.5697 17.1836C15.7775 17.095 15.9651 16.9653 16.1215 16.8023L16.325 16.5933L11.6494 11.7927L10.237 13.2422L13.7037 16.8015ZM5.20441 10.7247L7.89133 14.102L10.8949 11.0184L2.46683 2.36393C2.36391 5.38017 3.33449 8.37426 5.20441 10.7247Z" fill="white"/>
</svg>
