<?xml version="1.0" encoding="iso-8859-1"?>
<!-- Uploaded to: SVG Repo, www.svgrepo.com, Generator: SVG Repo Mixer Tools -->
<svg height="800px" width="800px" version="1.1" id="Layer_1" xmlns="http://www.w3.org/2000/svg" xmlns:xlink="http://www.w3.org/1999/xlink" 
	 viewBox="0 0 512 512" xml:space="preserve">
<path style="fill:#B27214;" d="M459.984,182.882c46.598,34.946,5.179,135.287-49.872,117.259l-11.152-65.286
	c-2.602-15.231-5.02-30.512-6.901-45.853C396.725,183.285,422.778,154.984,459.984,182.882z"/>
<g>
	<path style="fill:#995C0D;" d="M400.609,290.991c0,0,21.712-54.919,38.071-76.147c0,0-45.6-12.868-45.6,32.07
		S400.609,290.991,400.609,290.991z"/>
	<path style="fill:#995C0D;" d="M119.934,188.989c-1.869,15.354-4.299,30.634-6.901,45.877l-11.14,65.274
		c-55.075,18.029-96.47-82.313-49.872-117.259C89.202,155.009,115.231,183.248,119.934,188.989z"/>
</g>
<g>
	<path style="fill:#844704;" d="M391.123,244.024c-0.412,0-0.827-0.028-1.247-0.084c-5.013-0.682-8.524-5.299-7.843-10.311
		c0.103-0.751,2.668-18.5,17.302-28.643c9.702-6.724,21.947-8.468,36.397-5.181c4.933,1.121,8.022,6.03,6.901,10.964
		c-1.121,4.933-6.03,8.026-10.965,6.901c-9.228-2.1-16.597-1.3-21.898,2.374c-7.82,5.42-9.569,15.947-9.583,16.051
		C399.564,240.689,395.633,244.024,391.123,244.024z"/>
	<path style="fill:#844704;" d="M120.868,244.024c-4.492,0-8.407-3.305-9.057-7.87c-0.05-0.314-1.785-10.785-9.702-16.185
		c-5.29-3.609-12.622-4.383-21.786-2.299c-4.931,1.121-9.844-1.968-10.965-6.901c-1.121-4.933,1.968-9.842,6.901-10.964
		c14.446-3.286,26.693-1.543,36.397,5.181c14.633,10.142,17.199,27.892,17.301,28.643c0.682,5.013-2.83,9.63-7.844,10.311
		C121.696,243.996,121.28,244.024,120.868,244.024z"/>
</g>
<path style="fill:#995C0D;" d="M292.815,13.565c-14.224,0-26.958,6.494-35.399,16.671C247.173,12.201,227.799,0,205.617,0
	c-5.06,0-9.161,4.102-9.161,9.161s4.1,9.161,9.161,9.161c22.729,0,41.221,18.491,41.221,41.221c0,5.059,4.1,9.161,9.161,9.161
	s9.161-4.102,9.161-9.161c0-15.25,12.406-27.656,27.656-27.656c5.06,0,9.161-4.102,9.161-9.161S297.875,13.565,292.815,13.565z"/>
<path style="fill:#B27214;" d="M410.112,300.141l4.141,24.295c1.539,9.026,2.296,18.077,2.296,27.043
	c0,50.311-23.696,98.387-64.956,128.96c-28.386,21.046-62,31.562-95.59,31.562c-33.614,0-67.204-10.517-95.602-31.562
	c-48.613-36.033-72.835-96.348-62.66-156.003l4.153-24.295l11.14-65.274c2.602-15.244,5.032-30.524,6.901-45.877
	c0.537-4.287,1.026-8.575,1.466-12.874c6.926-68.218,64.541-121.46,134.603-121.46c70.05,0,127.665,53.243,134.591,121.46
	c0.44,4.299,0.928,8.599,1.466,12.886c1.881,15.341,4.299,30.622,6.901,45.853L410.112,300.141z"/>
<path style="fill:#995C0D;" d="M208.034,480.438c-48.613-36.033-72.835-96.348-62.66-156.003l4.153-24.295l11.14-65.274
	c2.602-15.244,5.032-30.524,6.901-45.877c0.537-4.287,1.026-8.575,1.466-12.874c6.122-60.304,51.859-108.897,110.784-119.362
	c-7.732-1.373-15.688-2.098-23.814-2.098c-70.062,0-127.678,53.243-134.603,121.46c-0.44,4.299-0.928,8.587-1.466,12.874
	c-1.869,15.354-4.299,30.634-6.901,45.877l-11.14,65.274l-4.153,24.295c-10.175,59.655,14.047,119.97,62.66,156.003
	C188.798,501.483,222.388,512,256.002,512c7.96,0,15.919-0.611,23.812-1.792C254.396,506.405,229.702,496.496,208.034,480.438z"/>
<path style="fill:#E09B2D;" d="M345.351,238.958c-13.411,23.146-16.685,50.812-10.407,76.817l1.893,7.854l4.434,18.371
	c1.661,6.877,2.455,13.79,2.455,20.606c0,33.358-19.103,64.627-50.36,79.345c-11.836,5.57-24.6,8.355-37.364,8.355
	c-12.776,0-25.54-2.785-37.376-8.355c-37.657-17.735-57.677-59.484-47.905-99.951l4.434-18.371l1.893-7.854
	c6.278-26.005,3.005-53.67-10.407-76.817c-4.8-8.294-7.329-18.065-6.742-28.46c1.466-25.919,22.719-46.855,48.662-47.954
	c20.594-0.879,38.622,10.492,47.441,27.409c8.819-16.917,26.835-28.289,47.429-27.409c25.943,1.099,47.197,22.035,48.662,47.954
	C352.68,220.893,350.151,230.665,345.351,238.958z"/>
<path style="fill:#F7B239;" d="M343.726,362.605c0,33.358-19.103,64.627-50.36,79.345c-11.836,5.57-24.6,8.355-37.364,8.355
	c-12.776,0-25.54-2.785-37.376-8.355c-37.657-17.735-57.677-59.484-47.905-99.951l4.434-18.371
	c22.169-1.148,38.756-19.775,45.548-28.838c7.158-9.564,17.699-16.233,29.535-17.748c1.905-0.244,3.835-0.366,5.753-0.366
	s3.848,0.122,5.753,0.366c11.836,1.515,22.377,8.184,29.535,17.748c6.791,9.063,23.378,27.69,45.56,28.838l4.434,18.371
	C342.933,348.876,343.726,355.79,343.726,362.605z"/>
<g>
	<path style="fill:#4D4D4D;" d="M216.561,237.185c-5.06,0-9.161-4.102-9.161-9.161v-17.761c0-5.059,4.1-9.161,9.161-9.161
		c5.06,0,9.161,4.102,9.161,9.161v17.761C225.722,233.083,221.621,237.185,216.561,237.185z"/>
	<path style="fill:#4D4D4D;" d="M301.016,237.185c-5.06,0-9.161-4.102-9.161-9.161v-17.761c0-5.059,4.1-9.161,9.161-9.161
		s9.161,4.102,9.161,9.161v17.761C310.177,233.083,306.075,237.185,301.016,237.185z"/>
</g>
<g>
	<path style="fill:#995C0D;" d="M278.196,379.749c-7.741,0-15.483-2.196-22.197-6.59c-15.721,10.287-37.073,8.531-50.872-5.268
		c-3.578-3.578-3.578-9.378,0-12.956c3.579-3.578,9.378-3.578,12.956,0c8.667,8.667,22.771,8.667,31.438,0
		c3.579-3.578,9.378-3.578,12.956,0c8.667,8.667,22.771,8.667,31.438,0c3.58-3.578,9.379-3.576,12.956,0
		c3.578,3.578,3.578,9.378,0,12.956C298.965,375.797,288.581,379.749,278.196,379.749z"/>
	<circle style="fill:#995C0D;" cx="239.721" cy="312.592" r="9.161"/>
	<circle style="fill:#995C0D;" cx="272.272" cy="312.58" r="9.161"/>
</g>
</svg>