<svg width="140" height="140" viewBox="0 0 140 140" fill="none" xmlns="http://www.w3.org/2000/svg">
<g clip-path="url(#clip0_44_64)">
<path d="M70.0001 116.667H116.667V128.333H70.0001C37.7826 128.333 11.6667 102.217 11.6667 70C11.6667 37.7825 37.7826 11.6667 70.0001 11.6667C102.218 11.6667 128.333 37.7825 128.333 70C128.352 82.6246 124.256 94.9115 116.667 105H100.87C109.062 97.7758 114.46 87.9072 116.124 77.1128C117.789 66.3184 115.615 55.282 109.98 45.9256C104.346 36.5691 95.6083 29.4853 85.2888 25.9078C74.9693 22.3303 63.7219 22.4856 53.5052 26.3468C43.2885 30.208 34.7497 37.5304 29.3758 47.0389C24.0019 56.5474 22.1334 67.6396 24.0956 78.384C26.0578 89.1283 31.7264 98.844 40.1144 105.839C48.5023 112.834 59.0781 116.666 70.0001 116.667ZM70.0001 58.3333C66.9059 58.3333 63.9384 57.1042 61.7505 54.9162C59.5626 52.7283 58.3334 49.7609 58.3334 46.6667C58.3334 43.5725 59.5626 40.605 61.7505 38.4171C63.9384 36.2292 66.9059 35 70.0001 35C73.0943 35 76.0617 36.2292 78.2497 38.4171C80.4376 40.605 81.6667 43.5725 81.6667 46.6667C81.6667 49.7609 80.4376 52.7283 78.2497 54.9162C76.0617 57.1042 73.0943 58.3333 70.0001 58.3333ZM46.6667 81.6667C43.5726 81.6667 40.6051 80.4375 38.4172 78.2496C36.2292 76.0617 35.0001 73.0942 35.0001 70C35.0001 66.9058 36.2292 63.9383 38.4172 61.7504C40.6051 59.5625 43.5726 58.3333 46.6667 58.3333C49.7609 58.3333 52.7284 59.5625 54.9163 61.7504C57.1042 63.9383 58.3334 66.9058 58.3334 70C58.3334 73.0942 57.1042 76.0617 54.9163 78.2496C52.7284 80.4375 49.7609 81.6667 46.6667 81.6667ZM93.3334 81.6667C90.2392 81.6667 87.2718 80.4375 85.0838 78.2496C82.8959 76.0617 81.6667 73.0942 81.6667 70C81.6667 66.9058 82.8959 63.9383 85.0838 61.7504C87.2718 59.5625 90.2392 58.3333 93.3334 58.3333C96.4276 58.3333 99.3951 59.5625 101.583 61.7504C103.771 63.9383 105 66.9058 105 70C105 73.0942 103.771 76.0617 101.583 78.2496C99.3951 80.4375 96.4276 81.6667 93.3334 81.6667ZM70.0001 105C66.9059 105 63.9384 103.771 61.7505 101.583C59.5626 99.395 58.3334 96.4275 58.3334 93.3333C58.3334 90.2391 59.5626 87.2717 61.7505 85.0838C63.9384 82.8958 66.9059 81.6667 70.0001 81.6667C73.0943 81.6667 76.0617 82.8958 78.2497 85.0838C80.4376 87.2717 81.6667 90.2391 81.6667 93.3333C81.6667 96.4275 80.4376 99.395 78.2497 101.583C76.0617 103.771 73.0943 105 70.0001 105Z" fill="#1C1C1C"/>
</g>
<defs>
<clipPath id="clip0_44_64">
<rect width="140" height="140" fill="white"/>
</clipPath>
</defs>
</svg>
