<svg width="140" height="140" viewBox="0 0 140 140" fill="none" xmlns="http://www.w3.org/2000/svg">
<g clip-path="url(#clip0_41_60)">
<path opacity="0.6" fill-rule="evenodd" clip-rule="evenodd" d="M17.5001 23.3333H122.5C124.047 23.3333 125.531 23.9479 126.625 25.0419C127.719 26.1358 128.333 27.6196 128.333 29.1667V35H11.6667V29.1667C11.6667 27.6196 12.2813 26.1358 13.3753 25.0419C14.4693 23.9479 15.953 23.3333 17.5001 23.3333Z" fill="#171717"/>
<path opacity="0.3" fill-rule="evenodd" clip-rule="evenodd" d="M29.1666 11.6667H110.833C112.38 11.6667 113.864 12.2813 114.958 13.3752C116.052 14.4692 116.667 15.9529 116.667 17.5V23.3333H23.3333V17.5C23.3333 15.9529 23.9478 14.4692 25.0418 13.3752C26.1358 12.2813 27.6195 11.6667 29.1666 11.6667Z" fill="#171717"/>
<path fill-rule="evenodd" clip-rule="evenodd" d="M5.83333 35H134.167C135.714 35 137.198 35.6146 138.291 36.7085C139.385 37.8025 140 39.2862 140 40.8333V128.333C140 129.88 139.385 131.364 138.291 132.458C137.198 133.552 135.714 134.167 134.167 134.167H5.83333C4.28624 134.167 2.80251 133.552 1.70854 132.458C0.614582 131.364 0 129.88 0 128.333V40.8333C0 39.2862 0.614582 37.8025 1.70854 36.7085C2.80251 35.6146 4.28624 35 5.83333 35ZM5.83333 46.6667V64.1667H23.3333V46.6667H5.83333ZM5.83333 75.8333V93.3333H23.3333V75.8333H5.83333ZM5.83333 105V122.5H23.3333V105H5.83333ZM116.667 46.6667V64.1667H134.167V46.6667H116.667ZM116.667 75.8333V93.3333H134.167V75.8333H116.667ZM116.667 105V122.5H134.167V105H116.667Z" fill="#171717"/>
</g>
<defs>
<clipPath id="clip0_41_60">
<rect width="140" height="140" fill="white"/>
</clipPath>
</defs>
</svg>
