<svg width="140" height="140" viewBox="0 0 140 140" fill="none" xmlns="http://www.w3.org/2000/svg">
<path fill-rule="evenodd" clip-rule="evenodd" d="M28.1197 20.641C23.9894 20.641 20.6411 23.9894 20.6411 28.1196V41.5812H38.5899V20.641H28.1197ZM47.5642 20.641V41.5812H65.5131V28.1196C65.5131 23.9894 62.1647 20.641 58.0343 20.641H47.5642ZM65.5131 50.5556H20.6411V77.4789H65.5131V50.5556ZM65.5131 86.4529H47.5642V107.393H65.5131V86.4529ZM66.132 116.367H28.1197C19.033 116.367 11.6667 109.001 11.6667 99.9145V28.1196C11.6667 19.0329 19.033 11.6667 28.1197 11.6667H58.0343C65.5656 11.6667 71.9146 16.7267 73.8682 23.6325H111.88C120.967 23.6325 128.333 30.9987 128.333 40.0855V111.88C128.333 120.967 120.967 128.333 111.88 128.333H81.966C74.4346 128.333 68.0856 123.273 66.132 116.367ZM74.4871 32.6068V53.547H92.4362V32.6068H74.4871ZM101.41 32.6068V53.547H119.359V40.0855C119.359 35.9551 116.01 32.6068 111.88 32.6068H101.41ZM119.359 62.5211H74.4871V89.4442H119.359V62.5211ZM119.359 98.4188H101.41V119.359H111.88C116.01 119.359 119.359 116.01 119.359 111.88V98.4188ZM92.4362 119.359V98.4188H74.4871V111.88C74.4871 116.01 77.8354 119.359 81.966 119.359H92.4362ZM38.5899 107.393V86.4529H20.6411V99.9145C20.6411 104.045 23.9894 107.393 28.1197 107.393H38.5899Z" fill="#141414"/>
</svg>
